# xmcd
#
# Track frame offsets: 
#        150
#        22425
#        44512
#        90111
#        124460
#
# Disc length: 2319 seconds
#
# Revision: 0
# Processed by: cddbd v1.5.2PL0 Copyright (c) Steve Scherf et al.
# Submitted via: ExactAudioCopy v1.2
#
DISCID=40090d05
DTITLE=ELIH - The Meet Me [EP]
DYEAR=2017
DGENRE=Blues
TTITLE0=AHO'
TTITLE1=Rainbow Stardust
TTITLE2=Meet Me
TTITLE3=Lord in the Skies
TTITLE4=I'm Gonna Stay
EXTD=
EXTT0=
EXTT1=
EXTT2=
EXTT3=
EXTT4=
PLAYORDER=
